<svg width="20" height="21" viewBox="0 0 20 21" fill="none" xmlns="http://www.w3.org/2000/svg">
<path d="M17.5003 4.66675C17.7216 4.66675 17.9228 4.75301 18.072 4.89374L18.1034 4.92119C18.2651 5.07737 18.3409 5.27561 18.3331 5.47112C18.3335 5.48045 18.3337 5.49025 18.3337 5.50008V15.5001C18.3337 15.9603 17.9606 16.3334 17.5003 16.3334H2.50033C2.04009 16.3334 1.66699 15.9603 1.66699 15.5001V5.50008L1.66866 5.46925L1.66699 5.44407C1.66699 5.22086 1.77414 5.01962 1.94573 4.87785C2.09321 4.74657 2.28745 4.66675 2.50033 4.66675H17.5003ZM8.62783 11.3442L4.75199 14.6667H15.2478L11.372 11.3442L10.5958 11.9646C10.2863 12.2117 9.8272 12.2323 9.49275 12.0264L9.40483 11.9646L8.62783 11.3442ZM16.667 7.11758L12.6978 10.2859L16.667 13.6884V7.11758ZM3.33366 7.11841V13.6876L7.30199 10.2859L3.33366 7.11841ZM15.0003 6.33341H5.00033L10.0008 10.5001L15.0003 6.33341Z" fill="#E0BC84"/>
</svg>
