<svg width="23" height="22" viewBox="0 0 23 22" fill="none" xmlns="http://www.w3.org/2000/svg">
<g id="Phone">
<path id="Icon" d="M9.84484 5.8452L7.20676 3.20712C6.81624 2.81659 6.18306 2.81659 5.79254 3.20713L4.08022 4.9195C3.69722 5.30251 3.39132 5.75814 3.29547 6.29124C3.00097 7.92935 2.92342 11.9238 7.49965 16.5C12.0758 21.0761 16.0702 20.9987 17.7084 20.7043C18.2416 20.6084 18.6973 20.3025 19.0803 19.9194L20.7926 18.2071C21.1831 17.8166 21.1831 17.1834 20.7926 16.7929L18.1545 14.1548C17.785 13.7853 17.1933 13.7626 16.7966 14.1027L14.7028 15.8973C14.3061 16.2374 13.7144 16.2147 13.3449 15.8452L8.15446 10.6548C7.78497 10.2853 7.76224 9.69364 8.1023 9.2969L9.89699 7.2031C10.2371 6.80636 10.2143 6.21469 9.84484 5.8452Z" stroke="#E0BC84" stroke-width="2" stroke-linecap="round"/>
</g>
</svg>
