<svg width="16" height="16" viewBox="0 0 16 16" fill="none" xmlns="http://www.w3.org/2000/svg">
<g id="Group 5">
<circle id="Ellipse 4" cx="8" cy="8" r="8" fill="#D9D9D9"/>
<path id="Icon" d="M3.84037 3.84036L12.1596 12.1595L3.84037 3.84036ZM11.5654 3.24614C11.8936 2.91795 12.4257 2.91795 12.7539 3.24614C13.082 3.57432 13.082 4.10641 12.7539 4.43459L9.18813 7.99959L12.7539 11.5653C13.082 11.8935 13.082 12.4256 12.7539 12.7537C12.4257 13.0819 11.8936 13.0819 11.5654 12.7537L7.99965 9.18805L4.4346 12.7537C4.12986 13.0585 3.6493 13.0802 3.31944 12.819L3.24614 12.7537C2.91795 12.4256 2.91795 11.8935 3.24614 11.5653L6.81118 7.99959L3.24614 4.43459C2.91795 4.10641 2.91795 3.57432 3.24614 3.24614C3.57432 2.91795 4.10642 2.91795 4.4346 3.24614L7.99965 6.81113L11.5654 3.24614Z" fill="#4A4A4A"/>
</g>
</svg>
