<svg width="25" height="25" viewBox="0 0 25 25" fill="none" xmlns="http://www.w3.org/2000/svg">
<g id="Group">
<path id="Vector" d="M19.9286 0.5H17.0714C16.9199 0.5 16.7745 0.562731 16.6674 0.674393C16.5602 0.786055 16.5 0.937501 16.5 1.09542V1.16567L20.5 4.5V1.09542C20.5 0.937501 20.4398 0.786055 20.3326 0.674393C20.2255 0.562731 20.0801 0.5 19.9286 0.5Z" fill="#E0BC84"/>
<path id="Vector_2" fill-rule="evenodd" clip-rule="evenodd" d="M11.5 8C11.5 7.60218 11.658 7.22064 11.9393 6.93934C12.2206 6.65804 12.6022 6.5 13 6.5C13.3978 6.5 13.7794 6.65804 14.0607 6.93934C14.342 7.22064 14.5 7.60218 14.5 8C14.5 8.39782 14.342 8.77936 14.0607 9.06066C13.7794 9.34196 13.3978 9.5 13 9.5C12.6022 9.5 12.2206 9.34196 11.9393 9.06066C11.658 8.77936 11.5 8.39782 11.5 8Z" fill="#E0BC84"/>
<path id="Vector_3" fill-rule="evenodd" clip-rule="evenodd" d="M22.2674 10.1059L23.1404 10.8702C23.3141 11.0183 23.5343 11.0855 23.7531 11.0573C23.9719 11.029 24.1717 10.9076 24.3092 10.7193C24.4467 10.5311 24.5107 10.2911 24.4875 10.0515C24.4643 9.81186 24.3557 9.59191 24.1852 9.43931L15.1154 1.50363C14.3731 0.853956 13.4507 0.5 12.5 0.5C11.5493 0.5 10.6269 0.853956 9.88456 1.50363L0.814791 9.43931C0.641302 9.591 0.530018 9.81186 0.505421 10.0533C0.480823 10.2947 0.544926 10.537 0.683628 10.7267C0.82233 10.9165 1.02427 11.0382 1.24502 11.0651C1.46577 11.092 1.68726 11.0219 1.86074 10.8702L2.73256 10.1059V22.6687H1.33721C1.11517 22.6687 0.90222 22.7652 0.745213 22.9369C0.588206 23.1086 0.5 23.3415 0.5 23.5843C0.5 23.8272 0.588206 24.0601 0.745213 24.2318C0.90222 24.4035 1.11517 24.5 1.33721 24.5H23.6628C23.8848 24.5 24.0978 24.4035 24.2548 24.2318C24.4118 24.0601 24.5 23.8272 24.5 23.5843C24.5 23.3415 24.4118 23.1086 24.2548 22.9369C24.0978 22.7652 23.8848 22.6687 23.6628 22.6687H22.2674V10.1059ZM9.43023 8.32343C9.43023 7.43299 9.75365 6.57902 10.3293 5.94939C10.905 5.31975 11.6858 4.96602 12.5 4.96602C13.3142 4.96602 14.095 5.31975 14.6707 5.94939C15.2463 6.57902 15.5698 7.43299 15.5698 8.32343C15.5698 9.21387 15.2463 10.0678 14.6707 10.6975C14.095 11.3271 13.3142 11.6808 12.5 11.6808C11.6858 11.6808 10.905 11.3271 10.3293 10.6975C9.75365 10.0678 9.43023 9.21387 9.43023 8.32343ZM12.5558 12.9017C13.297 12.9017 13.9367 12.9017 14.449 12.9774C14.9982 13.058 15.524 13.2399 15.9504 13.7063C16.3768 14.1726 16.5432 14.7477 16.6168 15.3483C16.6816 15.8733 16.686 16.5204 16.686 17.2688V22.6687H15.0116V17.48C15.0116 16.5912 15.0094 16.0149 14.958 15.5925C14.9089 15.1957 14.8308 15.0712 14.766 15.0016C14.7024 14.932 14.5886 14.8453 14.2258 14.7916C13.8384 14.7355 13.3127 14.733 12.5 14.733C11.6873 14.733 11.1605 14.7355 10.7742 14.7916C10.4114 14.8453 10.2976 14.932 10.234 15.0016C10.1703 15.0712 10.0911 15.1957 10.042 15.5925C9.99061 16.0162 9.98837 16.5912 9.98837 17.48V22.6687H8.31395V17.4189C8.31395 16.6083 8.31395 15.9087 8.38316 15.3483C8.45684 14.7477 8.62316 14.1726 9.04958 13.7063C9.476 13.2399 10.0029 13.058 10.551 12.9774C11.0633 12.9017 11.703 12.9017 12.4453 12.9017H12.5547H12.5558Z" fill="#E0BC84"/>
<path id="Vector_4" fill-rule="evenodd" clip-rule="evenodd" d="M11.5 8C11.5 7.60218 11.658 7.22064 11.9393 6.93934C12.2206 6.65804 12.6022 6.5 13 6.5C13.3978 6.5 13.7794 6.65804 14.0607 6.93934C14.342 7.22064 14.5 7.60218 14.5 8C14.5 8.39782 14.342 8.77936 14.0607 9.06066C13.7794 9.34196 13.3978 9.5 13 9.5C12.6022 9.5 12.2206 9.34196 11.9393 9.06066C11.658 8.77936 11.5 8.39782 11.5 8Z" fill="#E0BC84"/>
</g>
</svg>
