<svg width="24" height="24" viewBox="0 0 24 24" fill="none" xmlns="http://www.w3.org/2000/svg">
<path fill-rule="evenodd" clip-rule="evenodd" d="M24 12.0729C24 5.40576 18.6268 0 12 0C5.3731 0 0 5.40576 0 12.0729C0 18.0983 4.38762 23.0932 10.1252 24V15.5636H7.07748V12.0729H10.1252V9.41248C10.1252 6.387 11.9173 4.7147 14.6579 4.7147C15.9707 4.7147 17.3443 4.95068 17.3443 4.95068V7.92184H15.8307C14.3406 7.92184 13.8748 8.85223 13.8748 9.80806V12.0728H17.2025L16.671 15.5635H13.8747V23.9998C19.6123 23.0949 23.9998 18.1 23.9998 12.0728L24 12.0729Z" fill="#1977F3"/>
<path fill-rule="evenodd" clip-rule="evenodd" d="M16.344 15.6081L16.8619 12.1949H13.6206V9.98035C13.6206 9.04737 14.0726 8.13599 15.5256 8.13599H17V5.23076C17 5.23076 15.6621 5 14.3833 5C11.714 5 9.96848 6.63359 9.96848 9.59355V12.195H7V15.6082H9.96848V23.8574C10.5634 23.9518 11.1732 24 11.7946 24C12.4158 24 13.0256 23.9502 13.6206 23.8574V15.6082H16.3442L16.344 15.6081Z" fill="#FEFEFE"/>
</svg>
