<svg width="24" height="24" viewBox="0 0 24 24" fill="none" xmlns="http://www.w3.org/2000/svg">
<mask id="mask0_1262_1925" style="mask-type:luminance" maskUnits="userSpaceOnUse" x="0" y="0" width="24" height="24">
<path d="M24 0H0V24H24V0Z" fill="white"/>
</mask>
<g mask="url(#mask0_1262_1925)">
<path d="M24 12.3808C24 11.5844 23.9311 10.7836 23.7841 10H12V14.512H18.7482C18.4682 15.9672 17.5685 17.2545 16.2509 18.0724V21H20.2769C22.6412 18.9593 24 15.9456 24 12.3808Z" fill="#4285F4"/>
<path d="M11.9084 24C15.2007 24 17.9772 22.9045 20 21.0136L16.0664 17.9227C14.972 18.6773 13.5591 19.1046 11.9129 19.1046C8.72831 19.1046 6.02812 16.9272 5.05928 14H1V17.1863C3.07225 21.3637 7.293 24 11.9084 24Z" fill="#34A853"/>
<path d="M5 14.845C4.52241 13.3237 4.52241 11.6764 5 10.1551V7H1.21282C-0.404274 10.4612 -0.404274 14.5389 1.21282 18L5 14.845Z" fill="#FBBC04"/>
<path d="M11.8648 4.89365C13.5982 4.8664 15.2735 5.52966 16.5288 6.74721L20 3.21727C17.8021 1.11841 14.8848 -0.0355108 11.8648 0.000833179C7.26781 0.000833179 3.06397 2.63578 1 6.81534L5.03857 10C5.99906 7.06975 8.69293 4.89365 11.8648 4.89365Z" fill="#EA4335"/>
</g>
</svg>
