<svg width="25" height="24" viewBox="0 0 25 24" fill="none" xmlns="http://www.w3.org/2000/svg">
<path id="Vector" d="M19.1667 10.6667V0H5.83333V5.33333H0.5V24H11.1667V18.6667H13.8333V24H24.5V10.6667H19.1667ZM5.83333 21.3333H3.16667V18.6667H5.83333V21.3333ZM5.83333 16H3.16667V13.3333H5.83333V16ZM5.83333 10.6667H3.16667V8H5.83333V10.6667ZM11.1667 16H8.5V13.3333H11.1667V16ZM11.1667 10.6667H8.5V8H11.1667V10.6667ZM11.1667 5.33333H8.5V2.66667H11.1667V5.33333ZM16.5 16H13.8333V13.3333H16.5V16ZM16.5 10.6667H13.8333V8H16.5V10.6667ZM16.5 5.33333H13.8333V2.66667H16.5V5.33333ZM21.8333 21.3333H19.1667V18.6667H21.8333V21.3333ZM21.8333 16H19.1667V13.3333H21.8333V16Z" fill="#201B18"/>
</svg>
