<svg width="20" height="21" viewBox="0 0 20 21" fill="none" xmlns="http://www.w3.org/2000/svg">
<g id="Filter">
<path id="Icon" fill-rule="evenodd" clip-rule="evenodd" d="M2.77743 5.27923C2.05284 4.30498 2.83198 3 4.13826 3H15.8619C17.1433 3 17.927 4.26102 17.2525 5.23767L12.8935 11.5495C12.8534 11.6075 12.8322 11.6743 12.8322 11.7424V15.7179C12.8322 16.2972 12.4516 16.8222 11.861 17.0575L9.81657 17.872C8.73503 18.3029 7.51681 17.5932 7.51681 16.5323V11.7626C7.51681 11.6902 7.49292 11.6195 7.44814 11.5593L2.77743 5.27923ZM4.13826 4.46603L8.80897 10.746C9.03285 11.0471 9.15232 11.4008 9.15232 11.7626V16.5323L11.1967 15.7179V11.7424C11.1967 11.4017 11.3027 11.0676 11.5028 10.7779L15.8619 4.46603L4.13826 4.46603Z" fill="#E0BC84"/>
</g>
</svg>
