<svg width="20" height="21" viewBox="0 0 20 21" fill="none" xmlns="http://www.w3.org/2000/svg">
<g id="Group">
<path id="Vector" fill-rule="evenodd" clip-rule="evenodd" d="M0 10.5C0 4.977 4.477 0.5 10 0.5C15.523 0.5 20 4.977 20 10.5C20 16.023 15.523 20.5 10 20.5C4.477 20.5 0 16.023 0 10.5ZM10 2.5C7.87827 2.5 5.84344 3.34285 4.34315 4.84315C2.84285 6.34344 2 8.37827 2 10.5C2 12.6217 2.84285 14.6566 4.34315 16.1569C5.84344 17.6571 7.87827 18.5 10 18.5C12.1217 18.5 14.1566 17.6571 15.6569 16.1569C17.1571 14.6566 18 12.6217 18 10.5C18 8.37827 17.1571 6.34344 15.6569 4.84315C14.1566 3.34285 12.1217 2.5 10 2.5Z" fill="#E0BC84"/>
<path id="Vector_2" fill-rule="evenodd" clip-rule="evenodd" d="M11.0417 5.29167C11.0417 5.0154 10.9319 4.75045 10.7366 4.5551C10.5412 4.35975 10.2763 4.25 10 4.25C9.72373 4.25 9.45878 4.35975 9.26343 4.5551C9.06808 4.75045 8.95833 5.0154 8.95833 5.29167V9.45833H4.79167C4.5154 9.45833 4.25045 9.56808 4.0551 9.76343C3.85975 9.95878 3.75 10.2237 3.75 10.5C3.75 10.7763 3.85975 11.0412 4.0551 11.2366C4.25045 11.4319 4.5154 11.5417 4.79167 11.5417H8.95833V15.7083C8.95833 15.9846 9.06808 16.2496 9.26343 16.4449C9.45878 16.6403 9.72373 16.75 10 16.75C10.2763 16.75 10.5412 16.6403 10.7366 16.4449C10.9319 16.2496 11.0417 15.9846 11.0417 15.7083V11.5417H15.2083C15.4846 11.5417 15.7496 11.4319 15.9449 11.2366C16.1403 11.0412 16.25 10.7763 16.25 10.5C16.25 10.2237 16.1403 9.95878 15.9449 9.76343C15.7496 9.56808 15.4846 9.45833 15.2083 9.45833H11.0417V5.29167Z" fill="#E0BC84"/>
</g>
</svg>
