<svg width="20" height="21" viewBox="0 0 20 21" fill="none" xmlns="http://www.w3.org/2000/svg">
<path d="M5.7334 16.25C5.39173 16.25 5.1084 15.9667 5.1084 15.625V13.9C5.1084 13.5583 5.39173 13.275 5.7334 13.275C6.07507 13.275 6.3584 13.5583 6.3584 13.9V15.625C6.3584 15.975 6.07507 16.25 5.7334 16.25Z" fill="#E0BC84"/>
<path d="M10 16.25C9.65833 16.25 9.375 15.9667 9.375 15.625V12.1667C9.375 11.825 9.65833 11.5417 10 11.5417C10.3417 11.5417 10.625 11.825 10.625 12.1667V15.625C10.625 15.975 10.3417 16.25 10 16.25Z" fill="#E0BC84"/>
<path d="M14.2666 16.25C13.9249 16.25 13.6416 15.9667 13.6416 15.625V10.4417C13.6416 10.1 13.9249 9.81667 14.2666 9.81667C14.6083 9.81667 14.8916 10.1 14.8916 10.4417V15.625C14.8916 15.975 14.6166 16.25 14.2666 16.25Z" fill="#E0BC84"/>
<path d="M5.73315 11.4833C5.44982 11.4833 5.19982 11.2917 5.12482 11.0083C5.04148 10.675 5.24148 10.3333 5.58315 10.25C8.64982 9.48334 11.3498 7.80834 13.4082 5.41667L13.7915 4.96667C14.0165 4.70834 14.4082 4.675 14.6748 4.9C14.9332 5.125 14.9665 5.51667 14.7415 5.78334L14.3582 6.23334C12.1332 8.83334 9.19982 10.6417 5.88315 11.4667C5.83315 11.4833 5.78315 11.4833 5.73315 11.4833Z" fill="#E0BC84"/>
<path d="M14.2669 8.43333C13.9252 8.43333 13.6419 8.15 13.6419 7.80833V6H11.8252C11.4835 6 11.2002 5.71667 11.2002 5.375C11.2002 5.03333 11.4835 4.75 11.8252 4.75H14.2669C14.6085 4.75 14.8919 5.03333 14.8919 5.375V7.81667C14.8919 8.15833 14.6169 8.43333 14.2669 8.43333Z" fill="#E0BC84"/>
<path d="M12.4998 19.4583H7.49984C2.97484 19.4583 1.0415 17.525 1.0415 13V8.00001C1.0415 3.47501 2.97484 1.54167 7.49984 1.54167H12.4998C17.0248 1.54167 18.9582 3.47501 18.9582 8.00001V13C18.9582 17.525 17.0248 19.4583 12.4998 19.4583ZM7.49984 2.79167C3.65817 2.79167 2.2915 4.15834 2.2915 8.00001V13C2.2915 16.8417 3.65817 18.2083 7.49984 18.2083H12.4998C16.3415 18.2083 17.7082 16.8417 17.7082 13V8.00001C17.7082 4.15834 16.3415 2.79167 12.4998 2.79167H7.49984Z" fill="#E0BC84"/>
</svg>
